<svg xmlns="http://www.w3.org/2000/svg" viewBox="0 0 128 128" role="img" aria-label="Profile avatar">
  <defs>
    <linearGradient id="bg" x1="0" y1="0" x2="1" y2="1">
      <stop offset="0" stop-color="#f1f5f9"/>
      <stop offset="1" stop-color="#dbeafe"/>
    </linearGradient>
  </defs>
  <rect x="2" y="2" width="124" height="124" rx="32" fill="url(#bg)"/>
  <ellipse cx="64" cy="120" rx="34" ry="18" fill="#334155" fill-opacity="0.12"/>
  <circle cx="64" cy="48" r="24" fill="#f7c9a6"/>
  <path d="M40 42c1-12 12-22 24-22s23 10 24 22c-5-5-11-8-18-8-8 0-14 3-19 8-4-1-7 0-11 0z" fill="#3f2a1f"/>
  <path d="M45 58c4 12 12 19 19 19 8 0 15-7 19-19-3 2-6 3-10 3-3 0-6-1-9-3-3 2-6 3-9 3-4 0-7-1-10-3z" fill="#3f2a1f"/>
  <circle cx="55" cy="49" r="2" fill="#1f2937"/>
  <circle cx="73" cy="49" r="2" fill="#1f2937"/>
  <path d="M58 60c2 2 4 3 6 3 2 0 4-1 6-3" stroke="#8b5e3c" stroke-width="2" stroke-linecap="round" fill="none"/>
  <path d="M34 108c3-16 14-26 30-26s27 10 30 26" fill="#374151"/>
  <path d="M36 106c8-9 17-13 28-13 10 0 20 4 28 13" fill="#111827"/>
</svg>
