<svg xmlns="http://www.w3.org/2000/svg" viewBox="0 0 128 128" role="img" aria-label="SmartRetail nature G logo">
  <defs>
    <linearGradient id="gTone" x1="18" y1="16" x2="110" y2="112" gradientUnits="userSpaceOnUse">
      <stop offset="0" stop-color="#9bb7be"/>
      <stop offset="1" stop-color="#6f8f98"/>
    </linearGradient>
    <filter id="softShadow" x="-20%" y="-20%" width="140%" height="140%">
      <feDropShadow dx="0" dy="3" stdDeviation="4" flood-color="#0f172a" flood-opacity="0.18"/>
    </filter>
  </defs>

  <circle cx="64" cy="64" r="58" fill="#f8fafc"/>

  <g fill="none" stroke="url(#gTone)" stroke-linecap="round" stroke-linejoin="round" filter="url(#softShadow)">
    <path d="M100 82a36 36 0 1 1-5.5-45" stroke-width="12"/>
    <path d="M74 64h28" stroke-width="10"/>
    <path d="M103 64v18" stroke-width="10"/>
  </g>

  <g stroke="url(#gTone)" stroke-linecap="round" stroke-linejoin="round" fill="none" filter="url(#softShadow)">
    <path d="M33 86C28 76 24 68 23 58" stroke-width="5.5"/>
    <path d="M23 58c-3-10-1-24 7-35" stroke-width="5.5"/>
    <path d="M30 23c9-12 23-18 40-17" stroke-width="5.5"/>
    <path d="M70 6c15 1 26 7 34 17" stroke-width="5.5"/>
    <path d="M104 23c9 9 13 19 14 32" stroke-width="5.5"/>

    <path d="M46 35l-8-6" stroke-width="3.2"/>
    <ellipse cx="35" cy="27" rx="3.2" ry="5.4" transform="rotate(-24 35 27)" fill="url(#gTone)" stroke="none"/>

    <path d="M58 24l-9-4" stroke-width="3.2"/>
    <ellipse cx="47" cy="18" rx="3" ry="5" transform="rotate(-35 47 18)" fill="url(#gTone)" stroke="none"/>

    <path d="M73 19l-10-2" stroke-width="3.2"/>
    <ellipse cx="60" cy="14" rx="2.8" ry="4.6" transform="rotate(-12 60 14)" fill="url(#gTone)" stroke="none"/>

    <path d="M88 21l-8 4" stroke-width="3.2"/>
    <ellipse cx="94" cy="17" rx="3.1" ry="5.2" transform="rotate(32 94 17)" fill="url(#gTone)" stroke="none"/>

    <path d="M101 30l-7 6" stroke-width="3.2"/>
    <ellipse cx="108" cy="32" rx="3" ry="5.1" transform="rotate(55 108 32)" fill="url(#gTone)" stroke="none"/>

    <path d="M111 46l-8 4" stroke-width="3.2"/>
    <ellipse cx="117" cy="50" rx="3" ry="5.1" transform="rotate(77 117 50)" fill="url(#gTone)" stroke="none"/>
  </g>
</svg>
